<svg width="6" height="10" viewBox="0 0 6 10" fill="none" xmlns="http://www.w3.org/2000/svg">
<path d="M1.18894 9.80211L5.84792 5.36939C5.90322 5.31662 5.94248 5.25945 5.96571 5.19789C5.98893 5.13632 6.00036 5.07036 5.99999 5C5.99999 4.92964 5.98838 4.86368 5.96515 4.80211C5.94193 4.74055 5.90285 4.68338 5.84792 4.63061L1.18894 0.184697C1.05991 0.0615655 0.898616 0 0.705068 0C0.511519 0 0.345621 0.0659631 0.207373 0.197889C0.0691242 0.329815 0 0.483729 0 0.659631C0 0.835532 0.0691242 0.989446 0.207373 1.12137L4.27188 5L0.207373 8.87863C0.0783405 9.00176 0.0138245 9.15356 0.0138245 9.33404C0.0138245 9.51451 0.0829492 9.67054 0.221198 9.80211C0.359446 9.93404 0.520736 10 0.705068 10C0.889399 10 1.05069 9.93404 1.18894 9.80211Z" fill="white"/>
</svg>
