<svg width="10" height="6" viewBox="0 0 10 6" fill="none" xmlns="http://www.w3.org/2000/svg">
<path d="M9.80211 4.81106L5.36939 0.152082C5.31662 0.0967829 5.25945 0.0575203 5.19789 0.0342945C5.13632 0.0110687 5.07036 -0.000359801 5 8.85911e-06C4.92964 8.85603e-06 4.86368 0.0116217 4.80211 0.0348475C4.74055 0.0580733 4.68338 0.0971516 4.63061 0.152082L0.184696 4.81106C0.0615653 4.94009 -2.22989e-07 5.10138 -2.31449e-07 5.29493C-2.39909e-07 5.48848 0.0659628 5.65438 0.197889 5.79263C0.329815 5.93088 0.483729 6 0.65963 6C0.835532 6 0.989446 5.93088 1.12137 5.79263L5 1.72812L8.87863 5.79263C9.00176 5.92166 9.15356 5.98618 9.33404 5.98618C9.51451 5.98618 9.67054 5.91705 9.80211 5.7788C9.93404 5.64055 10 5.47926 10 5.29493C10 5.1106 9.93404 4.94931 9.80211 4.81106Z" fill="#181C32"/>
</svg>
