<svg width="28" height="32" viewBox="0 0 28 32" fill="none" xmlns="http://www.w3.org/2000/svg">
<path d="M0.0802902 22.0937L5.05442 17.1798C3.62729 15.0668 2.98698 12.5137 3.24545 9.96687C3.50391 7.42003 4.6447 5.04155 6.46837 3.24726L6.46843 3.23904L6.46907 3.23778L6.46971 3.23652C8.5479 1.18088 11.3495 0.0344534 14.2591 0.0490187C17.0629 0.0590267 19.8632 1.1429 21.9912 3.29193L21.9994 3.29195L22.0006 3.29322L23.4275 4.73731L21.9778 6.16986L15.5995 12.4697L9.22308 18.7702L7.77265 20.2046L7.77078 20.2027L2.93605 24.98L0.0802902 22.0937ZM12.1725 19.2109L18.5501 12.9098L20.0012 11.4772L20.0024 11.4779L24.8384 6.70059L27.6929 9.58623L22.7219 14.4976C23.9534 16.3228 24.6027 18.4832 24.5839 20.6929C24.5616 23.5001 23.4668 26.3059 21.3048 28.4422L21.3035 28.4434L21.2953 28.4434C19.219 30.4976 16.4201 31.6439 13.5128 31.6309C10.6058 31.623 7.82576 30.4568 5.78263 28.388L5.77446 28.388L5.77321 28.3867L4.34627 26.9439L5.79606 25.5113L12.1725 19.2109ZM16.0908 21.046L15.0276 22.0971L10.3158 26.7517C11.3102 27.2806 12.4186 27.5585 13.5458 27.5617C15.3179 27.568 17.0936 26.8997 18.4527 25.5609L18.4484 25.5571L18.4496 25.5559C19.0965 24.9187 19.6118 24.1596 19.9657 23.3224C20.3196 22.4852 20.5051 21.5865 20.5115 20.6784C20.5203 19.5666 20.2626 18.4539 19.7387 17.4451L16.0921 21.0486L16.0908 21.046ZM8.03256 14.2373L11.6811 10.632L12.7444 9.58341L17.4568 4.92888C16.4624 4.4 15.354 4.12205 14.2268 4.11889C12.3957 4.1091 10.6324 4.83008 9.3242 6.12343L9.32294 6.12469L9.31856 6.12152C8.67255 6.75964 8.1581 7.5194 7.80487 8.35697C7.45164 9.19453 7.26662 10.0933 7.26049 11.0016C7.25165 12.1139 7.50998 13.2279 8.03319 14.2367L8.03256 14.2373Z" fill="#FCBB19"/>
</svg>
