<svg width="131" height="34" viewBox="0 0 131 34" fill="none" xmlns="http://www.w3.org/2000/svg">
<mask id="mask0_27_2569" style="mask-type:luminance" maskUnits="userSpaceOnUse" x="0" y="1" width="131" height="33">
<path d="M0.255859 1L130.15 1.4594L129.9 33.1554L0.00530963 32.696L0.255859 1Z" fill="white"/>
</mask>
<g mask="url(#mask0_27_2569)">
<path d="M42.032 13.6809C41.9682 12.973 41.6717 12.4243 41.14 12.0309C40.6083 11.638 39.8897 11.4375 38.9847 11.4343C38.0545 11.431 37.3416 11.6183 36.8404 11.9954C36.3392 12.3763 36.0895 12.8533 36.0849 13.434C36.0672 14.0768 36.339 14.5633 36.8995 14.8991C37.4613 15.2304 38.1297 15.4879 38.9059 15.6721L40.5154 16.0649C41.5548 16.3034 42.4779 16.6437 43.281 17.0914C44.0879 17.5391 44.721 18.1138 45.1802 18.8154C45.6402 19.5132 45.8636 20.3663 45.8557 21.3671C45.8384 23.0101 45.2106 24.3172 43.9814 25.2851C42.7477 26.2568 41.0361 26.7369 38.8433 26.7292C36.6675 26.7215 34.9309 26.2166 33.6421 25.2194C32.3502 24.2185 31.6907 22.7502 31.6606 20.8062L35.331 20.8191C35.3895 21.7211 35.7386 22.3976 36.3808 22.8537C37.023 23.3084 37.8398 23.5379 38.8274 23.5413C39.7898 23.5447 40.5608 23.3456 41.1405 22.9358C41.7195 22.5304 42.0163 21.9958 42.0252 21.3416C42.0262 20.7361 41.7625 20.2656 41.2379 19.9381C40.7139 19.6063 39.9675 19.3244 38.9944 19.0862L37.0432 18.5893C35.5325 18.2216 34.3394 17.6405 33.4697 16.8467C32.5993 16.0535 32.1719 14.9973 32.1905 13.6754C32.1909 12.5882 32.4904 11.6342 33.0852 10.8208C33.6756 10.0073 34.4916 9.37621 35.5232 8.92672C36.556 8.47723 37.7257 8.25543 39.035 8.26005C40.3675 8.26474 41.5306 8.49478 42.5221 8.95521C43.5143 9.41565 44.2869 10.053 44.8355 10.866C45.3847 11.6835 45.661 12.6237 45.6734 13.6944L42.032 13.6809ZM53.1653 26.7873C51.783 26.7824 50.5958 26.4946 49.6006 25.9269C48.6093 25.3592 47.8462 24.5575 47.3158 23.5135C46.7848 22.474 46.5271 21.2457 46.5383 19.8255C46.5492 18.4375 46.8262 17.2194 47.3737 16.1754C47.9205 15.1315 48.6844 14.3187 49.6684 13.737C50.6518 13.1566 51.8018 12.8681 53.1231 12.8728C54.3118 12.877 55.3794 13.1314 56.3303 13.6374C57.2849 14.1434 58.0357 14.9038 58.5877 15.9224C59.1429 16.9373 59.4129 18.2113 59.4008 19.7394L59.3928 20.7644L50.2218 20.732L50.2218 20.7403C50.2138 21.7449 50.4832 22.5404 51.026 23.1192C51.5726 23.7018 52.3114 23.9932 53.2492 23.9965C53.8741 23.9987 54.4144 23.8686 54.873 23.6068C55.3323 23.3482 55.6558 22.9584 55.8452 22.4444L59.2994 22.6832C59.0266 23.9343 58.3521 24.9328 57.2766 25.6779C56.2005 26.4236 54.8315 26.7932 53.1653 26.7873ZM50.2401 18.4131L55.8933 18.4331C55.8958 17.6347 55.6456 16.9706 55.1395 16.4503C54.6334 15.925 53.9771 15.6631 53.1623 15.6602C52.3361 15.6573 51.6503 15.9271 51.1151 16.4603C50.5886 16.9772 50.2758 17.6752 50.2401 18.4131ZM69.2047 20.8402L69.2658 13.1023L73.0017 13.1155L72.8955 26.5935L69.3077 26.5809L69.327 24.135L69.187 24.1345C68.8854 24.9097 68.3527 25.5726 67.6622 26.0318C66.9508 26.5072 66.0931 26.7472 65.0809 26.7436C63.7276 26.7389 62.6325 26.2819 61.7996 25.3727C60.968 24.4679 60.5584 23.227 60.562 21.6538L60.6296 13.0719L64.3656 13.085L64.3032 21C64.3013 21.7945 64.5102 22.4255 64.9265 22.8883C65.3467 23.3512 65.908 23.5873 66.6156 23.5898C67.2866 23.5922 67.8851 23.3595 68.411 22.8917C68.9413 22.424 69.2021 21.742 69.2047 20.8402ZM74.6853 26.5998L74.827 8.6287L82.0145 8.65405C83.9979 8.66104 85.4835 9.0991 86.4724 9.96696C87.4615 10.8317 87.951 11.9364 87.9403 13.283C87.932 14.3416 87.6206 15.1972 87.0025 15.8456C86.3799 16.4983 85.6034 16.924 84.6677 17.1307L84.6664 17.3078C85.3491 17.3387 85.989 17.5346 86.5871 17.8952C87.181 18.2515 87.6626 18.7513 88.0316 19.3911C88.4011 20.0308 88.5843 20.793 88.5773 21.6821C88.5698 22.6379 88.3285 23.4855 87.8496 24.2334C87.3745 24.9806 86.6749 25.5677 85.7539 25.9928C84.8329 26.4211 83.6998 26.6322 82.3584 26.6275L74.6853 26.5998ZM78.5069 23.5087L81.6009 23.5196C82.6629 23.5233 83.4377 23.3198 83.9265 22.9141C84.411 22.5033 84.6542 21.9647 84.6595 21.2901C84.6654 20.5489 84.4066 19.9381 83.8799 19.4628C83.3571 18.9875 82.6387 18.7501 81.7249 18.7469L78.5445 18.7357L78.5069 23.5087ZM78.5648 16.1617L81.3794 16.1716C82.157 16.1743 82.8044 15.9748 83.3222 15.5692C83.8394 15.1674 84.0992 14.6086 84.1048 13.8997C84.1099 13.253 83.8832 12.7293 83.4298 12.3285C82.9719 11.9271 82.3239 11.7274 81.4845 11.7245L78.5999 11.7143L78.5648 16.1617ZM95.7526 26.9375C94.3904 26.9327 93.2166 26.6366 92.2291 26.0524C91.2467 25.4683 90.4876 24.6501 89.9566 23.6062C89.4262 22.5584 89.1684 21.3466 89.1793 19.9631C89.1903 18.5714 89.4672 17.3571 90.0141 16.3131C90.5615 15.2692 91.3335 14.4608 92.3251 13.8836C93.3217 13.302 94.5001 13.018 95.8623 13.0228C97.2239 13.0277 98.3985 13.3199 99.3859 13.9085C100.368 14.4927 101.127 15.3064 101.658 16.3542C102.185 17.4019 102.447 18.6182 102.436 20.0099C102.425 21.3934 102.144 22.6033 101.601 23.6472C101.054 24.6874 100.281 25.5001 99.2899 26.0773C98.2933 26.6545 97.1142 26.9423 95.7526 26.9375ZM95.7919 24.0431C96.7177 24.0463 97.4201 23.6617 97.8992 22.8935C98.3827 22.121 98.6293 21.1496 98.6386 19.9717C98.6479 18.7939 98.4166 17.8215 97.9453 17.0411C97.4784 16.2652 96.7821 15.8756 95.8563 15.8723C94.9185 15.869 94.2034 16.2536 93.7162 17.0262C93.2326 17.8032 92.9866 18.7739 92.9773 19.9518C92.968 21.1296 93.1987 22.1027 93.67 22.8786C94.1451 23.6501 94.8541 24.0397 95.7919 24.0431ZM107.356 18.9236L107.295 26.7148L103.56 26.7016L103.666 13.2236L107.225 13.2362L107.206 15.616L107.367 15.6166C107.661 14.8495 108.193 14.1972 108.883 13.7567C109.586 13.2978 110.435 13.0742 111.435 13.0778C112.838 13.0827 113.958 13.5354 114.798 14.4446C115.639 15.3494 116.053 16.5909 116.04 18.1635L115.973 26.7454L112.241 26.7323L112.303 18.8173C112.314 17.9942 112.109 17.3468 111.684 16.8795C111.261 16.4128 110.678 16.1804 109.929 16.1777C109.176 16.1751 108.561 16.416 108.089 16.896C107.611 17.3766 107.368 18.0504 107.356 18.9236ZM123.788 27.0364C122.405 27.0315 121.218 26.7436 120.223 26.1759C119.232 25.6082 118.468 24.8065 117.938 23.7626C117.407 22.7231 117.149 21.4948 117.161 20.0745C117.172 18.6866 117.449 17.4684 117.996 16.4245C118.543 15.3805 119.307 14.5677 120.291 13.9861C121.274 13.4057 122.424 13.1172 123.745 13.1218C124.934 13.126 126.002 13.3805 126.953 13.8864C127.907 14.3924 128.658 15.1528 129.21 16.1715C129.765 17.1863 130.035 18.4603 130.023 19.9885L130.015 21.0134L120.844 20.9811L120.844 20.9893C120.836 21.9939 121.105 22.7894 121.648 23.3682C122.195 23.9509 122.934 24.2422 123.871 24.2455C124.496 24.2477 125.037 24.1176 125.496 23.8559C125.955 23.5973 126.278 23.2075 126.468 22.6935L129.922 22.9322C129.649 24.1834 128.974 25.1818 127.898 25.9269C126.823 26.6726 125.454 27.0422 123.788 27.0364ZM120.862 18.6622L126.516 18.6821C126.518 17.8837 126.268 17.2197 125.762 16.6994C125.256 16.174 124.599 15.9121 123.785 15.9093C122.958 15.9064 122.273 16.1762 121.737 16.7093C121.211 17.2263 120.898 17.9243 120.862 18.6622ZM122.33 11.5512L124.229 7.56728L127.673 7.57943L124.967 11.5605L122.33 11.5512Z" fill="white"/>
<path d="M0.0802902 23.0937L5.05442 18.1798C3.62729 16.0668 2.98698 13.5137 3.24545 10.9669C3.50391 8.42003 4.6447 6.04155 6.46837 4.24726L6.46843 4.23904L6.46907 4.23778L6.46971 4.23652C8.5479 2.18088 11.3495 1.03445 14.2591 1.04902C17.0629 1.05903 19.8632 2.1429 21.9912 4.29193L21.9994 4.29195L22.0006 4.29322L23.4275 5.73731L21.9778 7.16986L15.5995 13.4697L9.22308 19.7702L7.77265 21.2046L7.77078 21.2027L2.93605 25.98L0.0802902 23.0937ZM12.1725 20.2109L18.5501 13.9098L20.0012 12.4772L20.0024 12.4779L24.8384 7.70059L27.6929 10.5862L22.7219 15.4976C23.9534 17.3228 24.6027 19.4832 24.5839 21.6929C24.5616 24.5001 23.4668 27.3059 21.3048 29.4422L21.3035 29.4434L21.2953 29.4434C19.219 31.4976 16.4201 32.6439 13.5128 32.6309C10.6058 32.623 7.82576 31.4568 5.78263 29.388L5.77446 29.388L5.77321 29.3867L4.34627 27.9439L5.79606 26.5113L12.1725 20.2109ZM16.0908 22.046L15.0276 23.0971L10.3158 27.7517C11.3102 28.2806 12.4186 28.5585 13.5458 28.5617C15.3179 28.568 17.0936 27.8997 18.4527 26.5609L18.4484 26.5571L18.4496 26.5559C19.0965 25.9187 19.6118 25.1596 19.9657 24.3224C20.3196 23.4852 20.5051 22.5865 20.5115 21.6784C20.5203 20.5666 20.2626 19.4539 19.7387 18.4451L16.0921 22.0486L16.0908 22.046ZM8.03256 15.2373L11.6811 11.632L12.7444 10.5834L17.4568 5.92888C16.4624 5.4 15.354 5.12205 14.2268 5.11889C12.3957 5.1091 10.6324 5.83008 9.3242 7.12343L9.32294 7.12469L9.31856 7.12152C8.67255 7.75964 8.1581 8.5194 7.80487 9.35697C7.45164 10.1945 7.26662 11.0933 7.26049 12.0016C7.25165 13.1139 7.50998 14.2279 8.03319 15.2367L8.03256 15.2373Z" fill="#FCBB19"/>
</g>
</svg>
