<svg width="108" height="108" viewBox="0 0 108 108" fill="none" xmlns="http://www.w3.org/2000/svg">
<path d="M54.0733 2.07345C61.4293 2.06395 68.7041 3.61041 75.4202 6.61131C82.1362 9.61221 88.1416 13.9997 93.0421 19.4857C97.9426 24.9717 101.627 31.4321 103.854 38.4429C106.081 45.4537 106.8 52.8562 105.964 60.1645L93.5621 58.7455C94.1982 53.1862 93.6512 47.5552 91.9571 42.2222C90.2631 36.8892 87.4601 31.9748 83.7324 27.8017C80.0047 23.6286 75.4365 20.2911 70.3277 18.0084C65.2189 15.7256 59.685 14.5492 54.0894 14.5565L54.0733 2.07345Z" fill="white"/>
<path d="M53.307 14.5575L53.308 15.3399L54.0905 15.3389C59.5757 15.3318 65.0004 16.485 70.0085 18.7227C75.0166 20.9604 79.4947 24.2321 83.1489 28.3229C86.8031 32.4138 89.5508 37.2312 91.2114 42.4591C92.8721 47.6869 93.4083 53.2069 92.7848 58.6566L92.6958 59.4339L93.4732 59.5229L105.875 60.9419L106.653 61.0308L106.742 60.2535C107.147 56.7101 107.192 53.1449 106.883 49.6117C106.544 45.7482 105.781 41.9229 104.6 38.206C102.34 31.0901 98.5996 24.5327 93.6256 18.9644C88.6516 13.3962 82.5562 8.94288 75.7394 5.89695C72.1788 4.306 68.4635 3.11779 64.6625 2.34703C61.1865 1.64216 57.6388 1.28642 54.0723 1.29103L53.2899 1.29204L53.2909 2.07446L53.307 14.5575Z" fill="#181C32" stroke="#F3F6FF" stroke-width="1.56485"/>
<path d="M105.968 60.1486C105.106 67.7045 102.602 74.9805 98.6316 81.4669C94.6614 87.9532 89.3209 93.4929 82.9843 97.698C76.6477 101.903 69.4683 104.672 61.949 105.81C54.4297 106.948 46.7525 106.428 39.4553 104.287L42.9701 92.3089C48.521 93.9378 54.3609 94.3331 60.0807 93.4673C65.8005 92.6015 71.2618 90.4955 76.082 87.2968C80.9022 84.0981 84.9646 79.8841 87.9847 74.95C91.0047 70.016 92.9094 64.4812 93.5651 58.7336L105.968 60.1486Z" fill="white"/>
<path d="M93.6538 57.9562L92.8765 57.8675L92.7878 58.6449C92.1449 64.2792 90.2778 69.7048 87.3173 74.5416C84.3568 79.3783 80.3745 83.5092 75.6494 86.6449C70.9243 89.7805 65.5706 91.845 59.9636 92.6937C54.3566 93.5424 48.6319 93.1549 43.1904 91.5581L42.4396 91.3378L42.2193 92.0886L38.7045 104.067L38.4843 104.817L39.2346 105.038L39.2391 105.039C42.6606 106.043 46.1644 106.695 49.6966 106.993C53.8095 107.339 57.961 107.205 62.0661 106.583C69.6982 105.428 76.9853 102.618 83.4169 98.3499C89.8486 94.0818 95.2692 88.4589 99.2989 81.8753C101.466 78.3341 103.203 74.5611 104.482 70.6366C105.58 67.2649 106.341 63.7814 106.745 60.2373L106.834 59.4599L106.056 59.3712L93.6538 57.9562Z" fill="#00BB00" stroke="#F3F6FF" stroke-width="1.56485"/>
<path d="M39.4335 104.281C26.6925 100.536 15.8594 92.0729 9.14307 80.6166C2.42671 69.1603 0.332836 55.5737 3.28836 42.6268L15.4583 45.405C13.2101 55.2535 14.8029 65.5886 19.9119 74.3033C25.0209 83.0179 33.2615 89.4558 42.9534 92.3042L39.4335 104.281Z" fill="white"/>
<path d="M43.7041 92.5249L43.9247 91.7742L43.174 91.5536C33.6732 88.7613 25.5952 82.4504 20.5869 73.9076C15.5786 65.3648 14.0172 55.2334 16.2211 45.5791L16.3953 44.8163L15.6324 44.6422L3.46249 41.864L2.69948 41.6898L2.52551 42.4529L2.52333 42.4624L2.52105 42.4724L2.52103 42.4725C1.72672 45.9582 1.29295 49.4895 1.21166 53.014C0.986606 62.7705 3.46258 72.4743 8.46809 81.0123C13.4736 89.5504 20.7318 96.4505 29.3553 101.019C32.4764 102.673 35.7763 104.021 39.2129 105.031L39.9636 105.252L40.1842 104.501L43.7041 92.5249Z" fill="#FCBB19" stroke="#F3F6FF" stroke-width="1.56485"/>
<path d="M3.25618 42.7599C5.85925 31.2176 12.3092 20.9032 21.5473 13.51C30.7853 6.11678 42.2625 2.08403 54.0947 2.07378L54.1055 14.5568C45.1049 14.5646 36.3744 17.6323 29.3471 23.2562C22.3199 28.8801 17.4135 36.7261 15.4334 45.5062L3.25618 42.7599Z" fill="white"/>
<path d="M15.2612 46.2694L16.0245 46.4416L16.1966 45.6783C18.1377 37.0714 22.9474 29.3801 29.836 23.8671C36.7247 18.354 45.2831 15.3469 54.1062 15.3392L54.8886 15.3386L54.8879 14.5561L54.8771 2.0731L54.8764 1.29067L54.094 1.29135C50.5159 1.29445 46.9697 1.65997 43.5061 2.37015C35.3445 4.04359 27.6414 7.63075 21.0584 12.8991C14.4754 18.1675 9.28727 24.8973 5.86587 32.4937C4.4139 35.7175 3.28011 39.0973 2.49293 42.5878L2.3208 43.3511L3.08405 43.5232L15.2612 46.2694Z" fill="#0988A8" stroke="#F3F6FF" stroke-width="1.56485"/>
<path d="M34.4134 63.4171C32.6525 63.4171 31.1411 62.9715 29.8793 62.0803C28.6246 61.1821 27.6586 59.8882 26.9813 58.1986C26.3112 56.5018 25.9761 54.4594 25.9761 52.0711C25.9833 49.6829 26.3219 47.6511 26.992 45.9758C27.6693 44.2933 28.6353 43.0101 29.89 42.1261C31.1518 41.2421 32.6596 40.8001 34.4134 40.8001C36.1671 40.8001 37.6749 41.2421 38.9368 42.1261C40.1986 43.0101 41.1646 44.2933 41.8348 45.9758C42.512 47.6582 42.8506 49.69 42.8506 52.0711C42.8506 54.4665 42.512 56.5125 41.8348 58.2093C41.1646 59.8989 40.1986 61.1892 38.9368 62.0803C37.6821 62.9715 36.1743 63.4171 34.4134 63.4171ZM34.4134 60.07C35.7822 60.07 36.8622 59.3963 37.6536 58.0489C38.452 56.6943 38.8512 54.7018 38.8512 52.0711C38.8512 50.3316 38.6694 48.8702 38.3059 47.6867C37.9423 46.5033 37.429 45.6122 36.766 45.0133C36.103 44.4074 35.3188 44.1044 34.4134 44.1044C33.0517 44.1044 31.9752 44.7817 31.1839 46.1362C30.3926 47.4836 29.9934 49.4619 29.9862 52.0711C29.9791 53.8178 30.1538 55.2863 30.5102 56.4769C30.8738 57.6675 31.3871 58.5657 32.0501 59.1717C32.7131 59.7705 33.5009 60.07 34.4134 60.07ZM54.4987 63.4171C52.7378 63.4171 51.2264 62.9715 49.9646 62.0803C48.7099 61.1821 47.7439 59.8882 47.0666 58.1986C46.3965 56.5018 46.0614 54.4594 46.0614 52.0711C46.0685 49.6829 46.4072 47.6511 47.0773 45.9758C47.7546 44.2933 48.7205 43.0101 49.9753 42.1261C51.2371 41.2421 52.7449 40.8001 54.4987 40.8001C56.2524 40.8001 57.7602 41.2421 59.0221 42.1261C60.2839 43.0101 61.2499 44.2933 61.92 45.9758C62.5973 47.6582 62.9359 49.69 62.9359 52.0711C62.9359 54.4665 62.5973 56.5125 61.92 58.2093C61.2499 59.8989 60.2839 61.1892 59.0221 62.0803C57.7673 62.9715 56.2595 63.4171 54.4987 63.4171ZM54.4987 60.07C55.8674 60.07 56.9475 59.3963 57.7388 58.0489C58.5373 56.6943 58.9365 54.7018 58.9365 52.0711C58.9365 50.3316 58.7547 48.8702 58.3911 47.6867C58.0276 46.5033 57.5143 45.6122 56.8513 45.0133C56.1883 44.4074 55.4041 44.1044 54.4987 44.1044C53.137 44.1044 52.0605 44.7817 51.2692 46.1362C50.4779 47.4836 50.0786 49.4619 50.0715 52.0711C50.0644 53.8178 50.239 55.2863 50.5955 56.4769C50.9591 57.6675 51.4724 58.5657 52.1354 59.1717C52.7984 59.7705 53.5861 60.07 54.4987 60.07ZM74.5839 63.4171C72.8231 63.4171 71.3117 62.9715 70.0498 62.0803C68.7951 61.1821 67.8291 59.8882 67.1519 58.1986C66.4817 56.5018 66.1467 54.4594 66.1467 52.0711C66.1538 49.6829 66.4924 47.6511 67.1626 45.9758C67.8398 44.2933 68.8058 43.0101 70.0605 42.1261C71.3224 41.2421 72.8302 40.8001 74.5839 40.8001C76.3377 40.8001 77.8455 41.2421 79.1073 42.1261C80.3692 43.0101 81.3352 44.2933 82.0053 45.9758C82.6826 47.6582 83.0212 49.69 83.0212 52.0711C83.0212 54.4665 82.6826 56.5125 82.0053 58.2093C81.3352 59.8989 80.3692 61.1892 79.1073 62.0803C77.8526 62.9715 76.3448 63.4171 74.5839 63.4171ZM74.5839 60.07C75.9527 60.07 77.0328 59.3963 77.8241 58.0489C78.6226 56.6943 79.0218 54.7018 79.0218 52.0711C79.0218 50.3316 78.84 48.8702 78.4764 47.6867C78.1128 46.5033 77.5995 45.6122 76.9365 45.0133C76.2735 44.4074 75.4893 44.1044 74.5839 44.1044C73.2223 44.1044 72.1458 44.7817 71.3545 46.1362C70.5631 47.4836 70.1639 49.4619 70.1568 52.0711C70.1496 53.8178 70.3243 55.2863 70.6808 56.4769C71.0443 57.6675 71.5576 58.5657 72.2206 59.1717C72.8836 59.7705 73.6714 60.07 74.5839 60.07Z" fill="#181C32"/>
</svg>
